<?xml version="1.0" encoding="UTF-8" standalone="no"?>
<svg
   xmlns:dc="http://purl.org/dc/elements/1.1/"
   xmlns:cc="http://creativecommons.org/ns#"
   xmlns:rdf="http://www.w3.org/1999/02/22-rdf-syntax-ns#"
   xmlns:svg="http://www.w3.org/2000/svg"
   xmlns="http://www.w3.org/2000/svg"
   xmlns:sodipodi="http://sodipodi.sourceforge.net/DTD/sodipodi-0.dtd"
   xmlns:inkscape="http://www.inkscape.org/namespaces/inkscape"
   version="1.1"
   id="Your_Icon"
   x="0px"
   y="0px"
   width="100px"
   height="100px"
   viewBox="0 0 100 100"
   enable-background="new 0 0 100 100"
   xml:space="preserve"
   inkscape:version="0.48.3.1 r9886"
   sodipodi:docname="icon_10605.svg"><metadata
   id="metadata15"><rdf:RDF><cc:Work
       rdf:about=""><dc:format>image/svg+xml</dc:format><dc:type
         rdf:resource="http://purl.org/dc/dcmitype/StillImage" /><dc:title></dc:title></cc:Work></rdf:RDF></metadata><defs
   id="defs13" /><sodipodi:namedview
   pagecolor="#ffffff"
   bordercolor="#666666"
   borderopacity="1"
   objecttolerance="10"
   gridtolerance="10"
   guidetolerance="10"
   inkscape:pageopacity="0"
   inkscape:pageshadow="2"
   inkscape:window-width="761"
   inkscape:window-height="480"
   id="namedview11"
   showgrid="false"
   inkscape:zoom="2.36"
   inkscape:cx="50"
   inkscape:cy="50"
   inkscape:window-x="0"
   inkscape:window-y="27"
   inkscape:window-maximized="0"
   inkscape:current-layer="Your_Icon" />
<g
   id="g3"
   style="fill:#ffffff;fill-opacity:1">
	<path
   d="M68,50c0,8.834,4.242,16.675,10.801,21.601C83.32,65.584,86,58.105,86,50s-2.68-15.584-7.199-21.601   C72.242,33.325,68,41.166,68,50z"
   id="path5"
   style="fill:#ffffff;fill-opacity:1" />
	<path
   d="M21.2,28.399C16.68,34.416,14,41.895,14,50s2.68,15.584,7.2,21.601C27.758,66.675,32,58.833,32,50   S27.758,33.325,21.2,28.399z"
   id="path7"
   style="fill:#ffffff;fill-opacity:1" />
	<path
   d="M59,50c0-11.366,5.273-21.496,13.5-28.094C66.336,16.963,58.516,14,50,14s-16.336,2.964-22.5,7.907   C35.728,28.504,41,38.634,41,50s-5.272,21.496-13.5,28.093C33.664,83.036,41.484,86,50,86s16.336-2.963,22.5-7.906   C64.273,71.496,59,61.366,59,50z"
   id="path9"
   style="fill:#ffffff;fill-opacity:1" />
</g>
</svg>