<?xml version="1.0" encoding="utf-8"?>
<!-- Generator: Adobe Illustrator 13.0.0, SVG Export Plug-In . SVG Version: 6.00 Build 14948)  -->
<!DOCTYPE svg PUBLIC "-//W3C//DTD SVG 1.1//EN" "http://www.w3.org/Graphics/SVG/1.1/DTD/svg11.dtd">
<svg version="1.1" xmlns="http://www.w3.org/2000/svg" xmlns:xlink="http://www.w3.org/1999/xlink" x="0px" y="0px" width="55px"
	 height="55px" viewBox="0 0 55 55" enable-background="new 0 0 55 55" xml:space="preserve">

<g id="Freeform_Marquee" >
	<path display="inline" fill="none" stroke="#FFFFFF" stroke-width="2.25" stroke-dasharray="6" d="M4.434,48
		c0,0,3.453-38.583,19-41.833s28.334,18.5,28.334,18.5L34.434,33"/>
	<g display="inline">
		<path fill="#FFFFFF" d="M45.368,43.971l-5.382-5.383h3.642c0.458,0,0.918-0.174,1.267-0.524c0.701-0.7,0.7-1.836,0-2.535
			c-0.351-0.351-0.811-0.525-1.267-0.526h-9.766l0.001,9.765c0,0.458,0.176,0.916,0.525,1.267c0.7,0.701,1.836,0.701,2.535,0
			c0.351-0.35,0.524-0.809,0.524-1.267v-3.644l5.385,5.384c0.324,0.323,0.772,0.524,1.268,0.525
			c0.99-0.001,1.793-0.804,1.793-1.794C45.894,44.742,45.691,44.296,45.368,43.971z"/>
	</g>
</g>

</svg>
